<<svg xmlns="http://www.w3.org/2000/svg" xmlns:xlink="http://www.w3.org/1999/xlink" width="500" zoomAndPan="magnify" viewBox="0 0 375 374.999991" height="500" preserveAspectRatio="xMidYMid meet" version="1.0"><defs><g/></defs><rect x="-37.5" width="450" fill="#ffffff" y="-37.499999" height="449.999989" fill-opacity="1"/><rect x="-37.5" width="450" fill="#ffffff" y="-37.499999" height="449.999989" fill-opacity="1"/><rect x="-37.5" width="450" fill="#ffffff" y="-37.499999" height="449.999989" fill-opacity="1"/><g fill="#004aad" fill-opacity="1"><g transform="translate(17.439849, 177.499997)"><g><path d="M 16.203125 0.53125 C 12.890625 0.53125 10.21875 0.175781 8.1875 -0.53125 C 6.15625 -1.25 4.609375 -2.226562 3.546875 -3.46875 C 2.492188 -4.71875 1.785156 -6.160156 1.421875 -7.796875 L 12.34375 -7.796875 C 13.144531 -6.628906 14.429688 -6.046875 16.203125 -6.046875 C 17.960938 -6.046875 19.25 -6.628906 20.0625 -7.796875 C 20.132812 -7.910156 20.171875 -8.007812 20.171875 -8.09375 C 20.171875 -8.40625 19.757812 -8.640625 18.9375 -8.796875 C 18.125 -8.953125 16.910156 -9.066406 15.296875 -9.140625 C 13.253906 -9.234375 11.113281 -9.453125 8.875 -9.796875 C 3.875 -10.566406 1.375 -12.578125 1.375 -15.828125 C 1.375 -16.097656 1.390625 -16.390625 1.421875 -16.703125 C 1.785156 -18.328125 2.492188 -19.765625 3.546875 -21.015625 C 4.609375 -22.265625 6.15625 -23.242188 8.1875 -23.953125 C 10.21875 -24.660156 12.890625 -25.015625 16.203125 -25.015625 C 19.515625 -25.015625 22.1875 -24.660156 24.21875 -23.953125 C 26.25 -23.242188 27.789062 -22.265625 28.84375 -21.015625 C 29.90625 -19.765625 30.617188 -18.328125 30.984375 -16.703125 L 20.0625 -16.703125 C 19.25 -17.859375 17.960938 -18.4375 16.203125 -18.4375 C 14.429688 -18.4375 13.144531 -17.859375 12.34375 -16.703125 C 12.28125 -16.609375 12.25 -16.519531 12.25 -16.4375 C 12.25 -16.164062 12.640625 -15.960938 13.421875 -15.828125 C 14.203125 -15.703125 15.351562 -15.59375 16.875 -15.5 C 18.394531 -15.40625 20.015625 -15.253906 21.734375 -15.046875 C 23.453125 -14.847656 25.0625 -14.492188 26.5625 -13.984375 C 28.0625 -13.484375 29.234375 -12.734375 30.078125 -11.734375 C 30.734375 -10.972656 31.0625 -10.003906 31.0625 -8.828125 C 31.0625 -8.503906 31.035156 -8.160156 30.984375 -7.796875 C 30.617188 -6.160156 29.90625 -4.71875 28.84375 -3.46875 C 27.789062 -2.226562 26.25 -1.25 24.21875 -0.53125 C 22.1875 0.175781 19.515625 0.53125 16.203125 0.53125 Z M 16.203125 0.53125 "/></g></g></g><g fill="#004aad" fill-opacity="1"><g transform="translate(49.86913, 177.499997)"><g><path d="M 23.921875 0 L 13.640625 0 L 13.640625 -11.625 L 0.25 -24.53125 L 11.65625 -24.53125 L 18.78125 -17.1875 L 25.890625 -24.53125 L 37.296875 -24.53125 L 23.921875 -11.625 Z M 23.921875 0 "/></g></g></g><g fill="#004aad" fill-opacity="1"><g transform="translate(87.407133, 177.499997)"><g><path d="M 49.359375 0 L 39.0625 0 L 39.0625 -15.640625 L 29.875 0 L 22.203125 0 L 13.015625 -15.640625 L 13.015625 0 L 2.734375 0 L 2.734375 -24.53125 L 14.953125 -24.53125 L 26.046875 -7 L 37.125 -24.53125 L 49.359375 -24.53125 Z M 49.359375 0 "/></g></g></g><g fill="#004aad" fill-opacity="1"><g transform="translate(139.485346, 177.499997)"><g><path d="M 13.015625 0 L 2.734375 0 L 2.734375 -24.53125 L 19.46875 -24.53125 C 23.46875 -24.53125 26.691406 -24.226562 29.140625 -23.625 C 31.597656 -23.03125 33.390625 -22.09375 34.515625 -20.8125 C 35.648438 -19.53125 36.21875 -17.859375 36.21875 -15.796875 C 36.21875 -13.742188 35.648438 -12.078125 34.515625 -10.796875 C 33.390625 -9.515625 31.597656 -8.570312 29.140625 -7.96875 C 26.691406 -7.375 23.46875 -7.078125 19.46875 -7.078125 L 13.015625 -7.078125 Z M 13.015625 -13.125 L 18.90625 -13.140625 C 20.539062 -13.140625 21.832031 -13.203125 22.78125 -13.328125 C 23.726562 -13.460938 24.425781 -13.648438 24.875 -13.890625 C 25.320312 -14.128906 25.609375 -14.410156 25.734375 -14.734375 C 25.859375 -15.066406 25.921875 -15.421875 25.921875 -15.796875 C 25.921875 -16.179688 25.859375 -16.535156 25.734375 -16.859375 C 25.609375 -17.179688 25.320312 -17.460938 24.875 -17.703125 C 24.425781 -17.941406 23.726562 -18.125 22.78125 -18.25 C 21.832031 -18.382812 20.539062 -18.453125 18.90625 -18.453125 L 13.015625 -18.453125 Z M 13.015625 -13.125 "/></g></g></g><g fill="#004aad" fill-opacity="1"><g transform="translate(177.057521, 177.499997)"><g><path d="M 18.546875 0.53125 C 12.484375 0.53125 8.019531 -0.71875 5.15625 -3.21875 C 2.632812 -5.425781 1.375 -8.4375 1.375 -12.25 C 1.375 -16.0625 2.632812 -19.070312 5.15625 -21.28125 C 8.019531 -23.769531 12.484375 -25.015625 18.546875 -25.015625 C 24.609375 -25.015625 29.066406 -23.769531 31.921875 -21.28125 C 34.453125 -19.070312 35.71875 -16.0625 35.71875 -12.25 C 35.71875 -8.4375 34.453125 -5.425781 31.921875 -3.21875 C 29.066406 -0.71875 24.609375 0.53125 18.546875 0.53125 Z M 18.546875 -6.046875 C 21.023438 -6.046875 22.847656 -6.757812 24.015625 -8.1875 C 24.941406 -9.332031 25.40625 -10.6875 25.40625 -12.25 C 25.40625 -13.8125 24.941406 -15.160156 24.015625 -16.296875 C 22.847656 -17.734375 21.023438 -18.453125 18.546875 -18.453125 C 16.054688 -18.453125 14.226562 -17.734375 13.0625 -16.296875 C 12.125 -15.160156 11.65625 -13.8125 11.65625 -12.25 C 11.65625 -10.6875 12.125 -9.332031 13.0625 -8.1875 C 14.226562 -6.757812 16.054688 -6.046875 18.546875 -6.046875 Z M 18.546875 -6.046875 "/></g></g></g><g fill="#004aad" fill-opacity="1"><g transform="translate(214.134202, 177.499997)"><g><path d="M 16.203125 0.53125 C 12.890625 0.53125 10.21875 0.175781 8.1875 -0.53125 C 6.15625 -1.25 4.609375 -2.226562 3.546875 -3.46875 C 2.492188 -4.71875 1.785156 -6.160156 1.421875 -7.796875 L 12.34375 -7.796875 C 13.144531 -6.628906 14.429688 -6.046875 16.203125 -6.046875 C 17.960938 -6.046875 19.25 -6.628906 20.0625 -7.796875 C 20.132812 -7.910156 20.171875 -8.007812 20.171875 -8.09375 C 20.171875 -8.40625 19.757812 -8.640625 18.9375 -8.796875 C 18.125 -8.953125 16.910156 -9.066406 15.296875 -9.140625 C 13.253906 -9.234375 11.113281 -9.453125 8.875 -9.796875 C 3.875 -10.566406 1.375 -12.578125 1.375 -15.828125 C 1.375 -16.097656 1.390625 -16.390625 1.421875 -16.703125 C 1.785156 -18.328125 2.492188 -19.765625 3.546875 -21.015625 C 4.609375 -22.265625 6.15625 -23.242188 8.1875 -23.953125 C 10.21875 -24.660156 12.890625 -25.015625 16.203125 -25.015625 C 19.515625 -25.015625 22.1875 -24.660156 24.21875 -23.953125 C 26.25 -23.242188 27.789062 -22.265625 28.84375 -21.015625 C 29.90625 -19.765625 30.617188 -18.328125 30.984375 -16.703125 L 20.0625 -16.703125 C 19.25 -17.859375 17.960938 -18.4375 16.203125 -18.4375 C 14.429688 -18.4375 13.144531 -17.859375 12.34375 -16.703125 C 12.28125 -16.609375 12.25 -16.519531 12.25 -16.4375 C 12.25 -16.164062 12.640625 -15.960938 13.421875 -15.828125 C 14.203125 -15.703125 15.351562 -15.59375 16.875 -15.5 C 18.394531 -15.40625 20.015625 -15.253906 21.734375 -15.046875 C 23.453125 -14.847656 25.0625 -14.492188 26.5625 -13.984375 C 28.0625 -13.484375 29.234375 -12.734375 30.078125 -11.734375 C 30.734375 -10.972656 31.0625 -10.003906 31.0625 -8.828125 C 31.0625 -8.503906 31.035156 -8.160156 30.984375 -7.796875 C 30.617188 -6.160156 29.90625 -4.71875 28.84375 -3.46875 C 27.789062 -2.226562 26.25 -1.25 24.21875 -0.53125 C 22.1875 0.175781 19.515625 0.53125 16.203125 0.53125 Z M 16.203125 0.53125 "/></g></g></g><g fill="#004aad" fill-opacity="1"><g transform="translate(246.563482, 177.499997)"><g><path d="M 13.015625 0 L 2.734375 0 L 2.734375 -24.53125 L 13.015625 -24.53125 Z M 13.015625 0 "/></g></g></g><g fill="#004aad" fill-opacity="1"><g transform="translate(262.3168, 177.499997)"><g><path d="M 17.25 0.53125 C 11.257812 0.53125 7.046875 -0.710938 4.609375 -3.203125 C 2.554688 -5.285156 1.53125 -8.296875 1.53125 -12.234375 L 1.53125 -24.5 L 11.828125 -24.5 L 11.828125 -12.234375 C 11.828125 -10.523438 12.117188 -9.175781 12.703125 -8.1875 C 13.535156 -6.757812 15.050781 -6.046875 17.25 -6.046875 C 19.46875 -6.046875 20.988281 -6.757812 21.8125 -8.1875 C 22.382812 -9.207031 22.671875 -10.554688 22.671875 -12.234375 L 22.671875 -24.5 L 32.96875 -24.5 L 32.96875 -12.09375 C 32.96875 -8.25 31.945312 -5.285156 29.90625 -3.203125 C 27.457031 -0.710938 23.238281 0.53125 17.25 0.53125 Z M 17.25 0.53125 "/></g></g></g><g fill="#004aad" fill-opacity="1"><g transform="translate(296.813502, 177.499997)"><g><path d="M 49.359375 0 L 39.0625 0 L 39.0625 -15.640625 L 29.875 0 L 22.203125 0 L 13.015625 -15.640625 L 13.015625 0 L 2.734375 0 L 2.734375 -24.53125 L 14.953125 -24.53125 L 26.046875 -7 L 37.125 -24.53125 L 49.359375 -24.53125 Z M 49.359375 0 "/></g></g></g><g fill="#004aad" fill-opacity="1"><g transform="translate(348.881233, 177.499997)"><g/></g></g><g fill="#004aad" fill-opacity="1"><g transform="translate(120.501925, 207.799981)"><g><path d="M 25.890625 0 L 19.34375 0 L 17.890625 -2.53125 L 8.171875 -2.53125 L 6.71875 0 L 0.15625 0 L 10.015625 -15.40625 L 16.03125 -15.40625 Z M 15.703125 -6.34375 L 13.03125 -11.015625 L 10.34375 -6.34375 Z M 15.703125 -6.34375 "/></g></g></g><g fill="#004aad" fill-opacity="1"><g transform="translate(146.547108, 207.799981)"><g><path d="M 10.84375 0.328125 C 7.082031 0.328125 4.4375 -0.453125 2.90625 -2.015625 C 1.613281 -3.316406 0.96875 -5.207031 0.96875 -7.6875 L 0.96875 -15.40625 L 7.4375 -15.40625 L 7.4375 -7.6875 C 7.4375 -6.613281 7.617188 -5.765625 7.984375 -5.140625 C 8.503906 -4.242188 9.457031 -3.796875 10.84375 -3.796875 C 12.238281 -3.796875 13.191406 -4.242188 13.703125 -5.140625 C 14.066406 -5.785156 14.25 -6.632812 14.25 -7.6875 L 14.25 -15.40625 L 20.71875 -15.40625 L 20.71875 -7.609375 C 20.71875 -5.179688 20.078125 -3.316406 18.796875 -2.015625 C 17.253906 -0.453125 14.601562 0.328125 10.84375 0.328125 Z M 10.84375 0.328125 "/></g></g></g><g fill="#004aad" fill-opacity="1"><g transform="translate(168.231739, 207.799981)"><g><path d="M 13.15625 0 L 6.6875 0 L 6.6875 -11.609375 L 0.640625 -11.609375 L 0.640625 -15.421875 L 19.1875 -15.421875 L 19.1875 -11.609375 L 13.15625 -11.609375 Z M 13.15625 0 "/></g></g></g><g fill="#004aad" fill-opacity="1"><g transform="translate(188.058295, 207.799981)"><g><path d="M 11.65625 0.328125 C 7.84375 0.328125 5.039062 -0.453125 3.25 -2.015625 C 1.65625 -3.410156 0.859375 -5.304688 0.859375 -7.703125 C 0.859375 -10.097656 1.65625 -11.988281 3.25 -13.375 C 5.039062 -14.945312 7.84375 -15.734375 11.65625 -15.734375 C 15.46875 -15.734375 18.269531 -14.945312 20.0625 -13.375 C 21.65625 -11.988281 22.453125 -10.097656 22.453125 -7.703125 C 22.453125 -5.304688 21.65625 -3.410156 20.0625 -2.015625 C 18.269531 -0.453125 15.46875 0.328125 11.65625 0.328125 Z M 11.65625 -3.796875 C 13.21875 -3.796875 14.363281 -4.242188 15.09375 -5.140625 C 15.675781 -5.867188 15.96875 -6.722656 15.96875 -7.703125 C 15.96875 -8.679688 15.675781 -9.53125 15.09375 -10.25 C 14.363281 -11.15625 13.21875 -11.609375 11.65625 -11.609375 C 10.09375 -11.609375 8.941406 -11.15625 8.203125 -10.25 C 7.617188 -9.53125 7.328125 -8.679688 7.328125 -7.703125 C 7.328125 -6.722656 7.617188 -5.867188 8.203125 -5.140625 C 8.941406 -4.242188 10.09375 -3.796875 11.65625 -3.796875 Z M 11.65625 -3.796875 "/></g></g></g><g fill="#004aad" fill-opacity="1"><g transform="translate(211.364701, 207.799981)"><g><path d="M 31.03125 0 L 24.5625 0 L 24.5625 -9.828125 L 18.78125 0 L 13.953125 0 L 8.1875 -9.828125 L 8.1875 0 L 1.71875 0 L 1.71875 -15.421875 L 9.40625 -15.421875 L 16.375 -4.40625 L 23.328125 -15.421875 L 31.03125 -15.421875 Z M 31.03125 0 "/></g></g></g><g fill="#004aad" fill-opacity="1"><g transform="translate(244.101074, 207.799981)"><g><path d="M 25.890625 0 L 19.34375 0 L 17.890625 -2.53125 L 8.171875 -2.53125 L 6.71875 0 L 0.15625 0 L 10.015625 -15.40625 L 16.03125 -15.40625 Z M 15.703125 -6.34375 L 13.03125 -11.015625 L 10.34375 -6.34375 Z M 15.703125 -6.34375 "/></g></g></g><g fill="#004aad" fill-opacity="1"><g transform="translate(270.146257, 207.799981)"><g><path d="M 13.15625 0 L 6.6875 0 L 6.6875 -11.609375 L 0.640625 -11.609375 L 0.640625 -15.421875 L 19.1875 -15.421875 L 19.1875 -11.609375 L 13.15625 -11.609375 Z M 13.15625 0 "/></g></g></g><g fill="#004aad" fill-opacity="1"><g transform="translate(289.972813, 207.799981)"><g><path d="M 8.1875 0 L 1.71875 0 L 1.71875 -15.421875 L 8.1875 -15.421875 Z M 8.1875 0 "/></g></g></g><g fill="#004aad" fill-opacity="1"><g transform="translate(299.87535, 207.799981)"><g><path d="M 11.65625 0.328125 C 7.84375 0.328125 5.039062 -0.453125 3.25 -2.015625 C 1.65625 -3.410156 0.859375 -5.304688 0.859375 -7.703125 C 0.859375 -10.097656 1.65625 -11.988281 3.25 -13.375 C 5.039062 -14.945312 7.84375 -15.734375 11.65625 -15.734375 C 15.46875 -15.734375 18.269531 -14.945312 20.0625 -13.375 C 21.65625 -11.988281 22.453125 -10.097656 22.453125 -7.703125 C 22.453125 -5.304688 21.65625 -3.410156 20.0625 -2.015625 C 18.269531 -0.453125 15.46875 0.328125 11.65625 0.328125 Z M 11.65625 -3.796875 C 13.21875 -3.796875 14.363281 -4.242188 15.09375 -5.140625 C 15.675781 -5.867188 15.96875 -6.722656 15.96875 -7.703125 C 15.96875 -8.679688 15.675781 -9.53125 15.09375 -10.25 C 14.363281 -11.15625 13.21875 -11.609375 11.65625 -11.609375 C 10.09375 -11.609375 8.941406 -11.15625 8.203125 -10.25 C 7.617188 -9.53125 7.328125 -8.679688 7.328125 -7.703125 C 7.328125 -6.722656 7.617188 -5.867188 8.203125 -5.140625 C 8.941406 -4.242188 10.09375 -3.796875 11.65625 -3.796875 Z M 11.65625 -3.796875 "/></g></g></g><g fill="#004aad" fill-opacity="1"><g transform="translate(323.181768, 207.799981)"><g><path d="M 24.59375 0 L 16.890625 0 L 8.1875 -10.4375 L 8.1875 0 L 1.71875 0 L 1.71875 -15.421875 L 9.40625 -15.421875 L 18.125 -5.03125 L 18.125 -15.421875 L 24.59375 -15.421875 Z M 24.59375 0 "/></g></g></g></svg>
